<?xml version="1.0" standalone="no"?>
<!DOCTYPE svg PUBLIC "-//W3C//DTD SVG 20010904//EN"
 "http://www.w3.org/TR/2001/REC-SVG-20010904/DTD/svg10.dtd">
<svg version="1.0" xmlns="http://www.w3.org/2000/svg"
 width="16.000000pt" height="16.000000pt" viewBox="0 0 16.000000 16.000000"
 preserveAspectRatio="xMidYMid meet">
<metadata>
Created by potrace 1.11, written by Peter Selinger 2001-2013
</metadata>
<g transform="translate(0.000000,16.000000) scale(0.002286,-0.002286)"
fill="#000000" stroke="none">
<path d="M3938 5685 c-2 -1 -41 -5 -88 -9 -345 -25 -689 -160 -965 -380 -63
-50 -201 -188 -240 -241 -17 -22 -38 -49 -49 -62 -104 -122 -252 -463 -282
-648 -3 -20 -8 -47 -10 -59 -19 -90 -26 -410 -11 -521 68 -511 337 -931 767
-1197 150 -93 384 -188 538 -218 34 -7 62 -16 62 -19 0 -4 -26 -22 -57 -41
-198 -119 -346 -239 -465 -375 l-79 -90 107 -101 107 -100 106 53 c261 131
554 150 802 52 28 -10 164 -75 302 -143 271 -134 331 -160 447 -198 229 -76
456 -92 715 -54 287 43 519 189 693 436 l51 73 -104 71 c-58 39 -174 119 -259
178 -86 60 -157 108 -160 108 -2 0 -6 -10 -10 -23 -9 -37 -81 -143 -128 -187
-52 -50 -144 -96 -218 -111 -56 -11 -265 -14 -310 -4 -14 3 -52 10 -85 16 -96
17 -345 102 -510 174 -151 65 -432 137 -565 144 -8 1 26 22 75 48 75 39 108
50 200 65 61 10 115 20 120 21 6 2 28 7 50 11 133 25 405 137 517 212 28 19
52 34 55 34 17 0 175 131 258 215 124 126 217 255 294 410 80 162 138 341 155
480 4 28 9 68 13 90 11 66 7 365 -6 440 -6 39 -14 84 -16 100 -6 47 -51 203
-78 275 -218 576 -736 972 -1386 1060 -74 10 -345 22 -353 15z m249 -589 c273
-33 537 -191 707 -421 73 -99 148 -264 176 -385 41 -184 45 -393 9 -549 -6
-25 -12 -55 -15 -65 -17 -84 -85 -236 -151 -334 -199 -300 -542 -472 -913
-457 -130 5 -156 8 -259 36 -174 46 -336 141 -462 270 -238 242 -347 581 -306
954 67 617 591 1027 1214 951z"/>
<path d="M710 5321 l0 -259 304 0 c167 0 308 -2 313 -5 13 -8 8 -1880 -6
-1951 -34 -179 -180 -275 -374 -245 -158 25 -248 127 -261 299 l-3 35 -298 3
-298 2 7 -72 c12 -139 21 -182 58 -278 51 -131 117 -221 228 -312 86 -70 255
-148 357 -164 21 -3 41 -8 45 -10 26 -16 276 -23 385 -11 273 32 512 173 637
376 34 55 82 170 94 226 7 28 15 64 19 80 3 17 8 596 9 1288 l3 1257 -609 0
-609 0 -1 -259z"/>
<path d="M6420 3045 c-164 -34 -244 -141 -255 -340 -9 -172 57 -317 165 -363
98 -41 242 -53 340 -27 154 41 226 141 237 332 13 215 -66 349 -230 394 -58
16 -191 18 -257 4z"/>
</g>
</svg>
